<svg width="263" height="259" viewBox="0 0 263 259" fill="none" xmlns="http://www.w3.org/2000/svg">
<path fill-rule="evenodd" clip-rule="evenodd" d="M315.365 83.0195L78.3454 80.389L49.2949 126.958L299.066 129.73L313.443 153.936L34.3972 150.839L7.95381 193.228C-12.6546 226.264 12.1832 268.121 52.6618 268.57L336.866 271.724C365.75 272.045 387.141 251.109 389.805 226.923L79.964 223.485C67.7178 223.349 57.8951 213.819 58.0241 202.2L58.0708 197.993L385.488 201.626C384.815 200.204 384.064 198.792 383.235 197.393L315.365 83.0195ZM301.001 58.8134L243.725 -37.7084C223.854 -71.1933 173.256 -71.7549 152.647 -38.7192L137.191 -13.9424L214.636 -13.0828L229.002 11.1233L122.293 9.93902L93.2431 56.5076L301.001 58.8134Z" fill="#1B1D29"/>
</svg>
